<svg width="67" height="18" viewBox="0 0 67 18" fill="none" xmlns="http://www.w3.org/2000/svg">
<path d="M13.004 0.487998C13.436 1.016 13.748 1.76 13.94 2.72C14.156 3.656 14.252 4.616 14.228 5.6C14.204 6.56 14.18 7.604 14.156 8.732C14.132 9.236 14.168 9.932 14.264 10.82C14.384 11.684 14.492 12.476 14.588 13.196C14.708 13.892 14.732 14.636 14.66 15.428C14.612 16.196 14.444 16.808 14.156 17.264C10.988 15.272 7.568 13.004 3.896 10.46C3.68 10.892 3.44 11.804 3.176 13.196C2.912 14.564 2.78 15.26 2.78 15.284C2.516 15.236 2.144 15.236 1.664 15.284C1.496 14.636 1.484 13.784 1.628 12.728C1.796 11.672 1.94 10.796 2.06 10.1C2.204 9.404 2.156 8.672 1.916 7.904C1.916 7.856 1.832 7.7 1.664 7.436C1.496 7.172 1.34 6.896 1.196 6.608C1.052 6.32 1.016 6.08 1.088 5.888C1.112 5.816 1.184 5.744 1.304 5.672C1.448 5.576 1.544 5.468 1.592 5.348C1.664 5.228 1.688 5.072 1.664 4.88C1.616 4.544 1.604 4.088 1.628 3.512C1.652 2.936 1.712 2.576 1.808 2.432C1.952 2.192 2.276 1.916 2.78 1.604C3.092 1.892 3.368 2.9 3.608 4.628C3.872 6.332 4.028 7.244 4.076 7.364C4.244 7.916 4.46 8.384 4.724 8.768C5.012 9.152 5.276 9.452 5.516 9.668C5.756 9.86 6.128 10.148 6.632 10.532C7.16 10.892 7.592 11.216 7.928 11.504C9.032 12.416 9.788 12.992 10.196 13.232C10.988 13.64 11.924 13.844 13.004 13.844C12.644 12.26 12.464 9.512 12.464 5.6C12.464 5.432 12.404 5.012 12.284 4.34C12.188 3.644 12.128 3.08 12.104 2.648C12.08 2.216 12.14 1.772 12.284 1.316C12.452 0.955998 12.692 0.679998 13.004 0.487998ZM20.9814 16.148C20.4534 16.316 19.9614 16.304 19.5054 16.112C19.0734 15.92 18.8214 15.644 18.7494 15.284C18.6774 14.924 18.8094 14.552 19.1454 14.168C19.4334 13.856 19.8534 13.664 20.4054 13.592C20.6934 13.544 21.6774 13.4 23.3574 13.16C25.0374 12.896 26.3334 12.656 27.2454 12.44C27.6294 12.344 28.1814 12.152 28.9014 11.864C29.6214 11.552 30.1974 11.384 30.6294 11.36C31.0134 11.312 31.3494 11.444 31.6374 11.756C31.9254 12.044 32.0814 12.356 32.1054 12.692C32.1054 12.884 32.0214 13.064 31.8534 13.232C31.6854 13.376 31.4334 13.484 31.0974 13.556C27.7374 14.18 24.3654 15.044 20.9814 16.148ZM30.9534 7.292C31.3614 7.268 31.7214 7.352 32.0334 7.544C32.3454 7.736 32.5014 7.988 32.5014 8.3C32.5014 8.828 32.0934 9.164 31.2774 9.308C31.0374 9.332 30.6534 9.392 30.1254 9.488C29.5974 9.56 29.2614 9.608 29.1174 9.632C28.9734 9.656 28.7094 9.704 28.3254 9.776C27.9654 9.848 27.6534 9.932 27.3894 10.028C27.1254 10.1 26.7774 10.196 26.3454 10.316C25.9134 10.436 25.4334 10.58 24.9054 10.748C23.5134 11.18 22.5774 11.552 22.0974 11.864C21.0654 12.536 20.5494 13.508 20.5494 14.78C20.5494 15.956 20.4774 16.784 20.3334 17.264C19.5654 17.144 19.0854 16.688 18.8934 15.896C18.6534 14.888 18.3774 14.204 18.0654 13.844C18.0174 13.796 17.9214 13.712 17.7774 13.592C17.6574 13.472 17.5854 13.4 17.5614 13.376C17.5374 13.352 17.4774 13.292 17.3814 13.196C17.3094 13.1 17.2734 13.04 17.2734 13.016C17.2734 12.968 17.2494 12.908 17.2014 12.836C17.1534 12.764 17.1414 12.716 17.1654 12.692C17.1894 12.644 17.2014 12.584 17.2014 12.512C17.2254 12.44 17.2494 12.38 17.2734 12.332C17.3214 12.26 17.3694 12.188 17.4174 12.116C17.4894 12.02 17.5734 11.924 17.6694 11.828C17.7174 11.756 17.8014 11.66 17.9214 11.54C18.0414 11.42 18.1134 11.348 18.1374 11.324C18.1614 11.276 18.2094 11.216 18.2814 11.144C18.3534 11.048 18.3894 10.964 18.3894 10.892C18.4134 10.82 18.4494 10.724 18.4974 10.604C18.5454 10.484 18.5934 10.34 18.6414 10.172C18.9054 9.044 18.6654 8.468 17.9214 8.444C17.4414 8.42 17.0934 8.192 16.8774 7.76C16.6614 7.328 16.7454 6.968 17.1294 6.68C17.4654 6.44 17.7294 6.224 17.9214 6.032C18.1134 5.84 18.2934 5.564 18.4614 5.204C18.6534 4.844 18.7614 4.436 18.7854 3.98C18.8574 2.924 19.1814 2.24 19.7574 1.928C19.8054 1.976 19.8654 2.036 19.9374 2.108C20.0334 2.156 20.0934 2.204 20.1174 2.252C20.1654 2.3 20.2254 2.36 20.2974 2.432C20.3694 2.48 20.4174 2.54 20.4414 2.612C20.4894 2.684 20.5374 2.78 20.5854 2.9C20.6334 3.02 20.6814 3.152 20.7294 3.296L21.1974 4.736C21.4854 4.64 21.8814 4.484 22.3854 4.268C22.9134 4.028 23.3694 3.812 23.7534 3.62C24.1614 3.428 24.6414 3.236 25.1934 3.044C25.7694 2.828 26.2614 2.672 26.6694 2.576C27.1014 2.48 27.5814 2.42 28.1094 2.396C28.6614 2.372 29.1294 2.444 29.5134 2.612C29.8014 2.708 30.0534 2.948 30.2694 3.332C29.4774 3.836 28.0854 4.424 26.0934 5.096C24.1254 5.744 22.7934 6.236 22.0974 6.572C20.7534 7.22 20.2614 8.324 20.6214 9.884C21.7254 9.74 23.4174 9.296 25.6974 8.552C27.9774 7.808 29.7294 7.388 30.9534 7.292ZM40.4098 11.036C40.3618 10.22 40.6618 9.44 41.3098 8.696C41.9578 7.952 42.7498 7.388 43.6858 7.004C44.6458 6.596 45.5458 6.392 46.3858 6.392C46.7938 6.392 47.0698 6.512 47.2138 6.752C47.3578 6.992 47.4418 7.352 47.4658 7.832C47.4898 8.192 47.4538 8.756 47.3578 9.524C47.2858 10.268 47.2498 10.676 47.2498 10.748C47.2738 10.964 47.3338 11.3 47.4298 11.756C47.5258 12.188 47.5978 12.572 47.6458 12.908C47.6938 13.22 47.7058 13.556 47.6818 13.916C47.6818 14.252 47.5738 14.516 47.3578 14.708C47.1418 14.9 46.8178 14.996 46.3858 14.996C45.2098 14.996 43.5658 15.356 41.4538 16.076C39.3418 16.772 37.7098 17.12 36.5578 17.12C34.6138 17.12 33.6298 16.136 33.6058 14.168C33.5818 12.92 33.9418 11.612 34.6858 10.244C35.4298 8.852 36.3658 7.604 37.4938 6.5C38.6218 5.372 39.8218 4.376 41.0938 3.512C42.3898 2.624 43.5778 1.988 44.6578 1.604C45.0898 1.484 45.5338 1.484 45.9898 1.604C46.4698 1.7 46.7938 1.892 46.9618 2.18C47.1298 2.444 47.0698 2.768 46.7818 3.152C46.6138 3.32 46.2898 3.476 45.8098 3.62C44.0098 4.172 42.3058 5.132 40.6978 6.5C39.1138 7.844 37.7098 9.416 36.4858 11.216C35.6698 12.416 35.2618 13.364 35.2618 14.06C35.2618 14.588 35.5018 14.924 35.9818 15.068C36.4858 15.188 37.0138 15.164 37.5658 14.996C38.3818 14.828 39.0658 14.648 39.6178 14.456C40.1938 14.264 40.9258 13.988 41.8138 13.628C42.7018 13.268 43.4698 12.968 44.1178 12.728C44.7898 12.488 45.2098 12.008 45.3778 11.288C45.5698 10.568 45.5218 9.812 45.2338 9.02C45.1138 9.044 44.3938 9.404 43.0738 10.1C41.7778 10.796 40.8898 11.108 40.4098 11.036ZM59.4609 12.044C58.8129 12.236 58.2489 12.356 57.7689 12.404C57.3129 12.428 56.7489 12.416 56.0769 12.368C55.4049 12.296 54.8529 12.26 54.4209 12.26C53.3169 12.26 52.6209 12.608 52.3329 13.304L51.7929 15.752C51.6249 16.616 51.1449 17.216 50.3529 17.552C50.1849 16.928 50.1009 16.412 50.1009 16.004C50.1009 15.572 50.1729 15.104 50.3169 14.6C50.4849 14.096 50.6529 13.664 50.8209 13.304C51.0129 12.92 51.2049 12.464 51.3969 11.936C51.5889 11.408 51.7089 10.916 51.7569 10.46C51.7329 10.244 51.8289 10.028 52.0449 9.812C52.2849 9.596 52.5249 9.416 52.7649 9.272C53.0289 9.128 53.1729 9.044 53.1969 9.02C53.7249 8.636 54.4209 7.784 55.2849 6.464C56.1729 5.12 56.6049 4.136 56.5809 3.512C56.5809 3.296 56.5209 3.02 56.4009 2.684C56.2809 2.348 56.1969 2.108 56.1489 1.964C56.1009 1.82 56.1609 1.604 56.3289 1.316C56.4249 1.148 56.8329 0.931999 57.5529 0.668C58.2969 0.403999 58.8369 0.247999 59.1729 0.2C59.1969 0.391999 59.2569 1.04 59.3529 2.144C59.4489 3.248 59.5809 3.932 59.7489 4.196C60.2769 5.156 61.0449 6.632 62.0529 8.624C63.0609 10.616 64.0089 12.344 64.8969 13.808C65.6409 15.056 66.0129 16.112 66.0129 16.976C65.2929 16.856 64.6929 16.532 64.2129 16.004C63.9729 15.764 63.4209 14.768 62.5569 13.016C62.0289 11.912 60.9969 11.588 59.4609 12.044ZM55.7169 7.724C55.2369 8.324 55.0209 8.9 55.0689 9.452C55.1409 10.004 55.5609 10.34 56.3289 10.46C58.3209 10.748 59.9289 10.748 61.1529 10.46C60.8409 9.476 60.3489 8.456 59.6769 7.4C59.0289 6.344 58.3809 5.564 57.7329 5.06C57.5409 5.3 56.8689 6.188 55.7169 7.724Z" fill="white"/>
</svg>
