<svg width="117" height="32" viewBox="0 0 117 32" fill="none" xmlns="http://www.w3.org/2000/svg">
<path d="M21.896 1.312C22.664 2.25066 23.2187 3.57333 23.56 5.28C23.944 6.944 24.1147 8.65067 24.072 10.4C24.0293 12.1067 23.9867 13.9627 23.944 15.968C23.9013 16.864 23.9653 18.1013 24.136 19.68C24.3493 21.216 24.5413 22.624 24.712 23.904C24.9253 25.1413 24.968 26.464 24.84 27.872C24.7547 29.2373 24.456 30.3253 23.944 31.136C18.312 27.5947 12.232 23.5627 5.704 19.04C5.32 19.808 4.89333 21.4293 4.424 23.904C3.95467 26.336 3.72 27.5733 3.72 27.616C3.25067 27.5307 2.58933 27.5307 1.736 27.616C1.43733 26.464 1.416 24.9493 1.672 23.072C1.97067 21.1947 2.22667 19.6373 2.44 18.4C2.696 17.1627 2.61067 15.8613 2.184 14.496C2.184 14.4107 2.03467 14.1333 1.736 13.664C1.43733 13.1947 1.16 12.704 0.904 12.192C0.648 11.68 0.584 11.2533 0.712 10.912C0.754667 10.784 0.882667 10.656 1.096 10.528C1.352 10.3573 1.52267 10.1653 1.608 9.952C1.736 9.73867 1.77867 9.46133 1.736 9.12C1.65067 8.52267 1.62933 7.712 1.672 6.688C1.71467 5.664 1.82133 5.024 1.992 4.768C2.248 4.34133 2.824 3.85066 3.72 3.296C4.27467 3.808 4.76533 5.6 5.192 8.672C5.66133 11.7013 5.93867 13.3227 6.024 13.536C6.32267 14.5173 6.70667 15.3493 7.176 16.032C7.688 16.7147 8.15733 17.248 8.584 17.632C9.01067 17.9733 9.672 18.4853 10.568 19.168C11.5067 19.808 12.2747 20.384 12.872 20.896C14.8347 22.5173 16.1787 23.5413 16.904 23.968C18.312 24.6933 19.976 25.056 21.896 25.056C21.256 22.24 20.936 17.3547 20.936 10.4C20.936 10.1013 20.8293 9.35467 20.616 8.16C20.4453 6.92267 20.3387 5.92 20.296 5.152C20.2533 4.384 20.36 3.59467 20.616 2.784C20.9147 2.144 21.3413 1.65333 21.896 1.312ZM36.078 29.152C35.1393 29.4507 34.2647 29.4293 33.454 29.088C32.686 28.7467 32.238 28.256 32.11 27.616C31.982 26.976 32.2167 26.3147 32.814 25.632C33.326 25.0773 34.0727 24.736 35.054 24.608C35.566 24.5227 37.3153 24.2667 40.302 23.84C43.2887 23.3707 45.5927 22.944 47.214 22.56C47.8967 22.3893 48.878 22.048 50.158 21.536C51.438 20.9813 52.462 20.6827 53.23 20.64C53.9127 20.5547 54.51 20.7893 55.022 21.344C55.534 21.856 55.8113 22.4107 55.854 23.008C55.854 23.3493 55.7047 23.6693 55.406 23.968C55.1073 24.224 54.6593 24.416 54.062 24.544C48.0887 25.6533 42.094 27.1893 36.078 29.152ZM53.806 13.408C54.5313 13.3653 55.1713 13.5147 55.726 13.856C56.2807 14.1973 56.558 14.6453 56.558 15.2C56.558 16.1387 55.8327 16.736 54.382 16.992C53.9553 17.0347 53.2727 17.1413 52.334 17.312C51.3953 17.44 50.798 17.5253 50.542 17.568C50.286 17.6107 49.8167 17.696 49.134 17.824C48.494 17.952 47.9393 18.1013 47.47 18.272C47.0007 18.4 46.382 18.5707 45.614 18.784C44.846 18.9973 43.9927 19.2533 43.054 19.552C40.5793 20.32 38.9153 20.9813 38.062 21.536C36.2273 22.7307 35.31 24.4587 35.31 26.72C35.31 28.8107 35.182 30.2827 34.926 31.136C33.5607 30.9227 32.7073 30.112 32.366 28.704C31.9393 26.912 31.4487 25.696 30.894 25.056C30.8087 24.9707 30.638 24.8213 30.382 24.608C30.1687 24.3947 30.0407 24.2667 29.998 24.224C29.9553 24.1813 29.8487 24.0747 29.678 23.904C29.55 23.7333 29.486 23.6267 29.486 23.584C29.486 23.4987 29.4433 23.392 29.358 23.264C29.2727 23.136 29.2513 23.0507 29.294 23.008C29.3367 22.9227 29.358 22.816 29.358 22.688C29.4007 22.56 29.4433 22.4533 29.486 22.368C29.5713 22.24 29.6567 22.112 29.742 21.984C29.87 21.8133 30.0193 21.6427 30.19 21.472C30.2753 21.344 30.4247 21.1733 30.638 20.96C30.8513 20.7467 30.9793 20.6187 31.022 20.576C31.0647 20.4907 31.15 20.384 31.278 20.256C31.406 20.0853 31.47 19.936 31.47 19.808C31.5127 19.68 31.5767 19.5093 31.662 19.296C31.7473 19.0827 31.8327 18.8267 31.918 18.528C32.3873 16.5227 31.9607 15.4987 30.638 15.456C29.7847 15.4133 29.166 15.008 28.782 14.24C28.398 13.472 28.5473 12.832 29.23 12.32C29.8273 11.8933 30.2967 11.5093 30.638 11.168C30.9793 10.8267 31.2993 10.336 31.598 9.696C31.9393 9.056 32.1313 8.33066 32.174 7.52C32.302 5.64267 32.878 4.42666 33.902 3.872C33.9873 3.95733 34.094 4.064 34.222 4.192C34.3927 4.27733 34.4993 4.36266 34.542 4.448C34.6273 4.53333 34.734 4.64 34.862 4.768C34.99 4.85333 35.0753 4.96 35.118 5.088C35.2033 5.216 35.2887 5.38667 35.374 5.6C35.4593 5.81333 35.5447 6.048 35.63 6.304L36.462 8.864C36.974 8.69333 37.678 8.416 38.574 8.032C39.5127 7.60533 40.3233 7.22133 41.006 6.88C41.7313 6.53867 42.5847 6.19733 43.566 5.856C44.59 5.472 45.4647 5.19467 46.19 5.024C46.958 4.85333 47.8113 4.74666 48.75 4.704C49.7313 4.66133 50.5633 4.78933 51.246 5.088C51.758 5.25867 52.206 5.68533 52.59 6.368C51.182 7.264 48.7073 8.30933 45.166 9.504C41.6673 10.656 39.2993 11.5307 38.062 12.128C35.6727 13.28 34.798 15.2427 35.438 18.016C37.4007 17.76 40.4087 16.9707 44.462 15.648C48.5153 14.3253 51.63 13.5787 53.806 13.408ZM70.6175 20.064C70.5322 18.6133 71.0655 17.2267 72.2175 15.904C73.3695 14.5813 74.7775 13.5787 76.4415 12.896C78.1482 12.1707 79.7482 11.808 81.2415 11.808C81.9668 11.808 82.4575 12.0213 82.7135 12.448C82.9695 12.8747 83.1188 13.5147 83.1615 14.368C83.2042 15.008 83.1402 16.0107 82.9695 17.376C82.8415 18.6987 82.7775 19.424 82.7775 19.552C82.8202 19.936 82.9268 20.5333 83.0975 21.344C83.2682 22.112 83.3962 22.7947 83.4815 23.392C83.5668 23.9467 83.5882 24.544 83.5455 25.184C83.5455 25.7813 83.3535 26.2507 82.9695 26.592C82.5855 26.9333 82.0095 27.104 81.2415 27.104C79.1508 27.104 76.2282 27.744 72.4735 29.024C68.7188 30.2613 65.8175 30.88 63.7695 30.88C60.3135 30.88 58.5642 29.1307 58.5215 25.632C58.4788 23.4133 59.1188 21.088 60.4415 18.656C61.7642 16.1813 63.4282 13.9627 65.4335 12C67.4388 9.99467 69.5722 8.224 71.8335 6.688C74.1375 5.10933 76.2495 3.97866 78.1695 3.296C78.9375 3.08266 79.7268 3.08266 80.5375 3.296C81.3908 3.46666 81.9668 3.808 82.2655 4.32C82.5642 4.78933 82.4575 5.36533 81.9455 6.048C81.6468 6.34667 81.0708 6.624 80.2175 6.88C77.0175 7.86133 73.9882 9.568 71.1295 12C68.3135 14.3893 65.8175 17.184 63.6415 20.384C62.1908 22.5173 61.4655 24.2027 61.4655 25.44C61.4655 26.3787 61.8922 26.976 62.7455 27.232C63.6415 27.4453 64.5802 27.4027 65.5615 27.104C67.0122 26.8053 68.2282 26.4853 69.2095 26.144C70.2335 25.8027 71.5348 25.312 73.1135 24.672C74.6922 24.032 76.0575 23.4987 77.2095 23.072C78.4042 22.6453 79.1508 21.792 79.4495 20.512C79.7908 19.232 79.7055 17.888 79.1935 16.48C78.9802 16.5227 77.7002 17.1627 75.3535 18.4C73.0495 19.6373 71.4708 20.192 70.6175 20.064ZM104.486 21.856C103.334 22.1973 102.331 22.4107 101.478 22.496C100.667 22.5387 99.6647 22.5173 98.47 22.432C97.2753 22.304 96.294 22.24 95.526 22.24C93.5633 22.24 92.326 22.8587 91.814 24.096L90.854 28.448C90.5553 29.984 89.702 31.0507 88.294 31.648C87.9953 30.5387 87.846 29.6213 87.846 28.896C87.846 28.128 87.974 27.296 88.23 26.4C88.5287 25.504 88.8273 24.736 89.126 24.096C89.4673 23.4133 89.8087 22.6027 90.15 21.664C90.4913 20.7253 90.7047 19.8507 90.79 19.04C90.7473 18.656 90.918 18.272 91.302 17.888C91.7287 17.504 92.1553 17.184 92.582 16.928C93.0513 16.672 93.3073 16.5227 93.35 16.48C94.2887 15.7973 95.526 14.2827 97.062 11.936C98.6407 9.54667 99.4087 7.79733 99.366 6.688C99.366 6.304 99.2593 5.81333 99.046 5.216C98.8327 4.61866 98.6833 4.192 98.598 3.936C98.5127 3.68 98.6193 3.296 98.918 2.784C99.0887 2.48533 99.814 2.10133 101.094 1.632C102.417 1.16267 103.377 0.885331 103.974 0.799999C104.017 1.14133 104.123 2.29333 104.294 4.256C104.465 6.21867 104.699 7.43467 104.998 7.904C105.937 9.61067 107.302 12.2347 109.094 15.776C110.886 19.3173 112.571 22.3893 114.15 24.992C115.473 27.2107 116.134 29.088 116.134 30.624C114.854 30.4107 113.787 29.8347 112.934 28.896C112.507 28.4693 111.526 26.6987 109.99 23.584C109.051 21.6213 107.217 21.0453 104.486 21.856ZM97.83 14.176C96.9767 15.2427 96.5927 16.2667 96.678 17.248C96.806 18.2293 97.5527 18.8267 98.918 19.04C102.459 19.552 105.318 19.552 107.494 19.04C106.939 17.2907 106.065 15.4773 104.87 13.6C103.718 11.7227 102.566 10.336 101.414 9.44C101.073 9.86666 99.878 11.4453 97.83 14.176Z" fill="white"/>
</svg>
