<svg width="375" height="310" viewBox="0 0 375 310" fill="none" xmlns="http://www.w3.org/2000/svg">
<g clip-path="url(#clip0_105_9)">
<path d="M322.85 162.699C324.907 163.27 327.103 163.067 329.021 162.129C330.938 161.19 332.445 159.58 333.255 157.605C334.065 155.629 334.122 153.426 333.416 151.411C332.709 149.396 331.288 147.711 329.421 146.674L310.907 125.673L295.248 129.056L317.273 150.624C316.731 151.771 316.448 153.022 316.442 154.29C316.437 155.558 316.71 156.812 317.242 157.963C317.773 159.115 318.551 160.135 319.52 160.954C320.489 161.772 321.626 162.368 322.85 162.699L322.85 162.699Z" fill="#A0616A"/>
<path d="M261.939 87.5163L308.083 145.428L322.149 138.971L267.912 54.5471L261.939 87.5163Z" fill="#3F3D56"/>
<path d="M153.189 309.885C155.984 309.885 158.25 307.619 158.25 304.825C158.25 302.03 155.984 299.765 153.189 299.765C150.394 299.765 148.128 302.03 148.128 304.825C148.128 307.619 150.394 309.885 153.189 309.885Z" fill="#3F3D56"/>
<path d="M156.87 202.93C156.87 202.93 168.832 166.589 169.753 164.059C170.673 161.529 180.335 165.669 182.865 166.359C185.396 167.049 184.706 169.579 184.706 169.579L171.823 206.841L175.734 208.681L187.697 171.189C194.598 164.059 189.537 163.599 189.537 163.599C189.537 163.599 174.814 158.538 169.292 158.078C163.771 157.618 165.842 164.289 165.842 164.289L152.499 199.71L156.87 202.93Z" fill="#3F3D56"/>
<path d="M185.626 211.671L185.624 211.668C183.926 209.235 181.516 207.387 178.724 206.38C178.625 206.344 178.51 206.302 178.379 206.256C172.041 204.041 127.883 192.12 127.883 192.12C127.883 192.12 119.141 188.9 115.23 197.64C111.319 206.381 88.0842 278.834 88.0842 278.834C88.0842 278.834 133.529 303.132 146.777 305.777C147.595 305.974 148.439 306.041 149.278 305.975C151.53 305.663 153.746 305.134 155.896 304.395C158.274 303.62 160.536 302.527 162.621 301.145L188.387 224.091C188.387 224.091 192.067 215.581 185.626 211.671Z" fill="#724AE3"/>
<path d="M185.626 211.671L185.624 211.669C183.926 209.235 181.516 207.387 178.724 206.381C178.625 206.344 178.51 206.302 178.379 206.256C180.464 209.909 181.255 215.581 181.255 215.581C181.255 215.581 155.949 290.794 153.649 297.925C151.896 303.36 148.36 305.207 146.777 305.777C147.595 305.974 148.439 306.041 149.278 305.975C151.53 305.663 153.746 305.133 155.896 304.395C156.525 303.674 157.082 302.894 157.56 302.065C157.56 302.065 183.326 225.011 185.626 221.331C187.927 217.651 185.626 211.671 185.626 211.671Z" fill="#3F3D56"/>
<path d="M137.66 310C140.455 310 142.721 307.734 142.721 304.94C142.721 302.145 140.455 299.88 137.66 299.88C134.865 299.88 132.599 302.145 132.599 304.94C132.599 307.734 134.865 310 137.66 310Z" fill="#3F3D56"/>
<path d="M88.5443 288.724C91.3395 288.724 93.6054 286.459 93.6054 283.664C93.6054 280.869 91.3395 278.604 88.5443 278.604C85.7491 278.604 83.4832 280.869 83.4832 283.664C83.4832 286.459 85.7491 288.724 88.5443 288.724Z" fill="#3F3D56"/>
<path d="M177.754 167.139C175.719 167.783 173.517 167.659 171.567 166.789C169.618 165.919 168.055 164.364 167.175 162.418C166.295 160.473 166.159 158.273 166.793 156.234C167.428 154.196 168.788 152.461 170.616 151.358L188.37 129.711L204.14 132.534L182.898 154.873C183.48 156 183.808 157.241 183.858 158.508C183.909 159.775 183.681 161.037 183.19 162.207C182.7 163.376 181.959 164.424 181.02 165.276C180.081 166.128 178.966 166.764 177.755 167.139L177.754 167.139Z" fill="#A0616A"/>
<path d="M298.758 262.386L309.755 262.213L308.433 299.69H298.76L298.758 262.386Z" fill="#A0616A"/>
<path d="M296.292 296.532L315.342 296.531H315.343C318.563 296.532 321.651 297.81 323.927 300.087C326.204 302.363 327.483 305.45 327.483 308.669V309.064L296.293 309.065L296.292 296.532Z" fill="#2F2E41"/>
<path d="M225.943 252.446L237.957 260.157L213.926 289.063L205.786 283.837L225.943 252.446Z" fill="#A0616A"/>
<path d="M205.416 279.847L221.447 290.137L221.447 290.138C224.157 291.877 226.064 294.621 226.75 297.767C227.435 300.912 226.843 304.201 225.104 306.91L224.891 307.241L198.644 290.394L205.416 279.847Z" fill="#2F2E41"/>
<path d="M221.663 138.009C221.663 138.009 248.356 49.3694 256.934 48.1716C265.513 46.9737 279.334 70.9155 279.334 70.9155C297.254 93.7755 315.733 167.824 315.733 167.824C315.733 167.824 284.928 169.752 262.41 181.73C239.892 193.708 213.318 181.124 213.318 181.124L221.663 138.009Z" fill="#3F3D56"/>
<path opacity="0.1" d="M221.663 138.009C221.663 138.009 248.356 49.3694 256.934 48.1716C265.513 46.9737 275.824 71.1584 275.824 71.1584C284.753 108.06 315.733 167.824 315.733 167.824C315.733 167.824 284.928 169.752 262.41 181.73C239.892 193.708 213.318 181.124 213.318 181.124L221.663 138.009Z" fill="black"/>
<path d="M243.563 111.489V156.029L238.32 220.55L212.127 269.355L224.628 278.283L260.346 231.859L274.473 185.762L296.659 287.806L313.327 286.616L301.751 145.133L279.784 105.309L243.563 111.489Z" fill="#2F2E41"/>
<path d="M270.476 68.4076C278.81 76.7403 271.071 85.6681 271.071 85.6681L280.596 107.095L243.092 117.213L229.986 58.6595L238.915 49.1365C256.774 48.5413 256.784 48.1713 256.784 48.1713C259.913 51.2328 270.476 68.4076 270.476 68.4076Z" fill="#724AE3"/>
<path d="M228.269 52.746C225.168 55.0258 222.994 58.3463 222.143 62.099C221.293 65.8517 221.824 69.7852 223.639 73.1783C227.935 81.3786 232.557 94.0813 230.174 108.026C225.861 133.264 212.037 152.438 204.337 158.596C201.656 160.739 201.562 163.861 201.956 166.102C203.055 172.364 209.128 179.47 213.328 180.894C213.61 180.988 213.907 181.035 214.205 181.032C221.028 181.034 237.812 159.307 257.099 116.865C269.11 90.432 260.393 69.238 250.964 56.1128C249.727 54.3955 248.161 52.9407 246.357 51.8328C244.553 50.7249 242.547 49.9859 240.455 49.6586C238.363 49.3312 236.228 49.4221 234.171 49.9259C232.115 50.4296 230.179 51.3364 228.476 52.5934L228.269 52.746Z" fill="#3F3D56"/>
<path d="M246.059 78.3004L191.897 149.353L177.61 143.401L228.805 57.0992L246.059 78.3004Z" fill="#3F3D56"/>
<path d="M262.125 40.4571H224.872C224.105 40.4562 223.371 40.1515 222.829 39.6098C222.287 39.068 221.982 38.3335 221.981 37.5673V21.5129C221.98 18.6868 222.535 15.8882 223.616 13.2768C224.697 10.6654 226.281 8.29253 228.28 6.29367C230.278 4.29481 232.65 2.70917 235.261 1.62734C237.873 0.545504 240.672 -0.0113163 243.498 -0.0113163C246.325 -0.0113163 249.124 0.545504 251.735 1.62734C254.346 2.70917 256.719 4.29481 258.717 6.29367C260.715 8.29253 262.3 10.6654 263.38 13.2768C264.461 15.8882 265.017 18.6868 265.015 21.5129V37.5673C265.014 38.3335 264.709 39.068 264.168 39.6098C263.626 40.1515 262.891 40.4562 262.125 40.4571V40.4571Z" fill="#2F2E41"/>
<path d="M261.762 31.8763C265.941 24.2329 263.131 14.6495 255.487 10.4712C247.842 6.29292 238.257 9.10199 234.078 16.7454C229.899 24.3889 232.708 33.9723 240.353 38.1505C247.998 42.3288 257.583 39.5198 261.762 31.8763Z" fill="#A0616A"/>
<path d="M270.105 23.1183H247.326L247.092 19.8485L245.925 23.1183H242.417L241.954 16.6376L239.639 23.1183H232.852V22.7973C232.857 18.2855 234.652 13.9599 237.843 10.7696C241.034 7.57925 245.36 5.78468 249.873 5.77959H253.085C257.597 5.78468 261.924 7.57924 265.114 10.7696C268.305 13.9599 270.1 18.2855 270.105 22.7973V23.1183Z" fill="#2F2E41"/>
<path d="M247.14 43.454C246.968 43.4538 246.797 43.4387 246.628 43.4088L229.948 40.4664V12.9042H248.31L247.855 13.4341C241.53 20.8091 246.295 32.7678 249.698 39.2397C249.949 39.7137 250.061 40.2489 250.021 40.7837C249.981 41.3185 249.791 41.8311 249.472 42.2625C249.205 42.6314 248.855 42.9317 248.449 43.1388C248.044 43.346 247.595 43.454 247.14 43.454Z" fill="#2F2E41"/>
</g>
<defs>
<clipPath id="clip0_105_9">
<rect width="506" height="310" fill="white"/>
</clipPath>
</defs>
</svg>
