<svg width="358" height="261" viewBox="0 0 358 261" fill="none" xmlns="http://www.w3.org/2000/svg">
<g clip-path="url(#clip0_109_41)">
<path d="M265.546 249.188C283.44 249.188 297.946 234.683 297.946 216.791C297.946 198.898 283.44 184.393 265.546 184.393C247.652 184.393 233.146 198.898 233.146 216.791C233.146 234.683 247.652 249.188 265.546 249.188Z" fill="#3F3D56"/>
<path d="M265.546 238.389C277.475 238.389 287.146 228.719 287.146 216.791C287.146 204.862 277.475 195.192 265.546 195.192C253.617 195.192 243.946 204.862 243.946 216.791C243.946 228.719 253.617 238.389 265.546 238.389Z" fill="white"/>
<path d="M265.546 229.09C272.339 229.09 277.846 223.583 277.846 216.791C277.846 209.998 272.339 204.491 265.546 204.491C258.753 204.491 253.246 209.998 253.246 216.791C253.246 223.583 258.753 229.09 265.546 229.09Z" fill="#3F3D56"/>
<path d="M78.3471 249.188C96.2411 249.188 110.747 234.683 110.747 216.791C110.747 198.898 96.2411 184.393 78.3471 184.393C60.4532 184.393 45.9473 198.898 45.9473 216.791C45.9473 234.683 60.4532 249.188 78.3471 249.188Z" fill="#3F3D56"/>
<path d="M78.3471 238.389C90.2764 238.389 99.947 228.719 99.947 216.791C99.947 204.862 90.2764 195.192 78.3471 195.192C66.4178 195.192 56.7472 204.862 56.7472 216.791C56.7472 228.719 66.4178 238.389 78.3471 238.389Z" fill="white"/>
<path d="M309.869 201.382C305.648 190.747 290.9 158.247 264.638 147.491C264.436 147.408 264.223 147.351 264.007 147.32L179.764 135.254C178.376 135.055 177.084 136.005 176.86 137.389L175.383 146.508C175.282 147.134 175.413 147.775 175.757 148.308C180.036 154.945 207.454 199.992 163.547 199.992C120.329 199.992 107.537 168.569 105.617 163.025C105.435 162.501 105.428 161.937 105.595 161.409L118.906 119.261C119.142 118.511 119.011 117.744 118.629 117.13L124.48 106.263L135.198 112.33L140.747 112.398L159.689 122.297L163.547 115.997L124.48 96.5128C124.48 96.5128 124.547 91.9989 111.947 88.3992L92.147 79.3998L89.7471 82.3996L95.747 87.1992L96.347 90.799L100.547 91.9989L108.947 108.198L106.547 112.839L109.46 114.259L108.623 114.069C107.419 113.796 106.189 114.417 105.695 115.549L92.4576 145.883C92.2551 146.348 91.92 146.742 91.4944 147.016L86.7789 150.058C86.3383 150.343 85.9951 150.755 85.7952 151.239L80.4094 164.302C80.2416 164.709 80.1937 165.136 80.237 165.549C73.5231 166.821 53.7865 172.315 42.9473 193.992L55.5472 204.191C55.5472 204.191 75.2979 191.413 107.94 204.72C113.613 213.55 121.89 220.878 133.84 221.569C165.347 223.39 217.546 225.19 223.546 217.99C227.939 212.72 230.995 209.429 232.317 208.044C232.782 207.556 233.418 207.274 234.092 207.252L307.561 204.906C309.345 204.849 310.527 203.041 309.869 201.382V201.382Z" fill="#724AE3"/>
<path d="M107.147 106.998C112.449 106.998 116.747 102.7 116.747 97.3986C116.747 92.097 112.449 87.7992 107.147 87.7992C101.845 87.7992 97.547 92.097 97.547 97.3986C97.547 102.7 101.845 106.998 107.147 106.998Z" fill="#3F3D56"/>
<path d="M260.887 147.527C260.773 147.527 260.659 147.525 260.544 147.521L180.277 144.414C176.726 144.276 173.683 142.015 172.527 138.654L171.429 135.457C170.532 132.85 170.922 130.058 172.497 127.796C174.073 125.535 176.557 124.201 179.312 124.138L262.242 122.231C264.81 122.172 267.282 123.272 268.959 125.251C270.634 127.229 271.318 129.825 270.833 132.372L269.269 140.582C268.493 144.654 264.997 147.527 260.887 147.527V147.527Z" fill="#3F3D56"/>
<path d="M78.3471 229.09C85.1401 229.09 90.647 223.583 90.647 216.791C90.647 209.998 85.1401 204.491 78.3471 204.491C71.554 204.491 66.0471 209.998 66.0471 216.791C66.0471 223.583 71.554 229.09 78.3471 229.09Z" fill="#3F3D56"/>
<path d="M293.133 181.775C291.212 181.775 289.383 180.746 288.408 178.982L282.327 167.979C281.364 166.236 281.419 164.187 282.474 162.499C283.529 160.81 285.352 159.856 287.335 159.965L298.367 160.531C300.421 160.636 302.267 161.928 303.069 163.824L306.293 171.441C306.882 172.836 306.868 174.366 306.252 175.749C305.635 177.132 304.507 178.165 303.076 178.659L294.902 181.477C294.318 181.679 293.721 181.775 293.133 181.775V181.775Z" fill="#3F3D56"/>
<path d="M153.605 254.904C153.513 254.904 153.421 254.899 153.329 254.889L150.879 254.616C150.078 254.527 149.386 254.078 148.978 253.383C148.57 252.689 148.516 251.864 148.828 251.122L161.57 220.861L161.847 220.977L161.57 220.861C161.92 220.03 162.693 219.445 163.587 219.333C164.457 219.222 165.306 219.564 165.859 220.243C166.413 220.921 166.577 221.82 166.297 222.65L156.005 253.184C155.658 254.214 154.675 254.904 153.605 254.904V254.904Z" fill="#3F3D56"/>
<path d="M219.764 43.7262C219.764 43.7262 215.102 34.4033 216.035 26.0127L200.52 34.0542L201.117 49.3199L219.764 43.7262H219.764V43.7262Z" fill="#A0616A"/>
<path d="M210.136 38.3601C217.866 38.3601 224.132 32.0944 224.132 24.3652C224.132 16.6359 217.866 10.3702 210.136 10.3702C202.406 10.3702 196.14 16.6359 196.14 24.3652C196.14 32.0944 202.406 38.3601 210.136 38.3601Z" fill="#A0616A"/>
<path d="M224.433 244.14L215.892 244.139L211.829 211.199L224.434 211.2L224.433 244.14Z" fill="#A0616A"/>
<path d="M195.172 243.946C194.906 244.394 194.766 245.84 194.766 246.36C194.766 247.961 196.063 249.259 197.664 249.259H224.113C225.205 249.259 226.091 248.374 226.091 247.282V246.18C226.091 246.18 227.399 242.871 224.705 238.792C224.705 238.792 221.357 241.986 216.354 236.984L214.879 234.311L204.2 242.121L198.281 242.849C196.986 243.009 195.838 242.825 195.172 243.946H195.172L195.172 243.946V243.946Z" fill="#2F2E41"/>
<path d="M199.253 43.7262L219.764 40.9293L235.614 48.3877L236.546 106.189C236.546 106.189 197.557 110.851 191.412 104.791C185.267 98.7312 189.929 50.2522 189.929 50.2522L199.253 43.7262H199.253V43.7262Z" fill="#E6E6E6"/>
<path d="M206.635 27.9304H202.873C202.873 27.9304 199.608 23.9122 200.047 26.3605C200.487 28.8087 198.73 31.4437 198.73 31.4437L196.095 30.5654C196.095 30.5654 190.824 8.40662 206.635 7.18941C222.446 5.9722 225.96 18.2688 225.96 18.2688C225.96 18.2688 225.081 24.4171 223.324 22.6604C221.568 20.9038 211.905 20.0255 211.905 20.0255L206.635 27.9304H206.635V27.9304Z" fill="#2F2E41"/>
<path d="M196.682 236.737L188.462 239.057L175.602 208.459L187.733 205.036L196.682 236.737Z" fill="#A0616A"/>
<path d="M168.469 244.5C168.335 245.004 168.593 246.433 168.734 246.934C169.169 248.475 170.771 249.371 172.311 248.936L197.765 241.75C198.816 241.453 199.428 240.361 199.131 239.31L198.832 238.25C198.832 238.25 199.192 234.71 195.491 231.516C195.491 231.516 193.137 235.499 186.963 232.044L184.817 229.873L176.662 240.29L171.163 242.6C169.96 243.105 168.805 243.24 168.469 244.5H168.469H168.469V244.5Z" fill="#2F2E41"/>
<path d="M233.749 100.596L236.546 109.052V138.122L228.155 225.86H211.762L209.912 163.228L211.373 132.294L180.109 179.592L193.852 213.374L178.728 223.461C178.728 223.461 156.11 171.917 159.494 166.923C162.879 161.93 193.192 102.974 193.192 102.974C193.192 102.974 233.749 101.528 233.749 100.596L233.749 100.596V100.596V100.596Z" fill="#2F2E41"/>
<path d="M242.141 67.0334L246.648 74.4155C246.648 74.4155 253.02 99.4597 246.648 99.5616C240.276 99.6635 227.41 86.7986 227.41 86.7986L229.088 80.0854L233.749 81.95L232.817 67.0334H242.141V67.0334V67.0334Z" fill="#A0616A"/>
<path d="M228.155 48.2702C228.155 48.2702 243.073 45.6422 244.471 55.4055C245.87 65.1688 246.648 74.4155 246.648 74.4155L230.486 75.7543L228.155 48.2702V48.2702V48.2702Z" fill="#E6E6E6"/>
<path d="M231.393 85.9776C232.742 84.0843 230.765 80.3631 226.978 77.6661C223.191 74.9691 219.028 74.3176 217.679 76.211C216.331 78.1044 218.308 81.8256 222.095 84.5225C225.882 87.2195 230.045 87.871 231.393 85.9776Z" fill="#A0616A"/>
<path d="M311.106 245.428L317.552 244.034L315.247 218.509L305.733 220.565L311.106 245.428Z" fill="#A0616A"/>
<path d="M333.16 240.51C333.434 240.804 333.776 241.873 333.861 242.266C334.122 243.474 333.354 244.665 332.145 244.926L312.182 249.239C311.358 249.417 310.545 248.893 310.367 248.069L310.187 247.238C310.187 247.238 308.66 244.953 310.028 241.435C310.028 241.435 313.076 243.3 316.036 238.709L316.714 236.451L326.048 240.604L330.634 240.189C331.638 240.098 332.474 239.772 333.16 240.51L333.16 240.51H333.16V240.51Z" fill="#2F2E41"/>
<path d="M322.636 243.475L328.014 239.658L315.85 217.098L307.913 222.732L322.636 243.475Z" fill="#A0616A"/>
<path d="M340.976 230.276C341.344 230.44 342.078 231.287 342.311 231.615C343.026 232.623 342.789 234.02 341.781 234.736L325.125 246.555C324.438 247.044 323.484 246.882 322.996 246.194L322.504 245.501C322.504 245.501 320.201 244.001 320.074 240.229C320.074 240.229 323.61 240.744 324.525 235.358L324.259 233.016L334.475 233.162L338.528 230.975C339.415 230.497 340.055 229.868 340.976 230.277L340.976 230.276V230.276V230.276Z" fill="#2F2E41"/>
<path d="M245.162 117.276C245.162 117.276 235.133 130.91 255.19 146.238L296.141 133.154L281.516 102.652L268.562 95.5489L245.162 117.276L245.162 117.276V117.276Z" fill="#2F2E41"/>
<path d="M296.141 133.154L312.019 164.073L322.048 228.42L309.512 229.255L296.976 168.252L274.83 135.243L290.291 128.14" fill="#2F2E41"/>
<path d="M255.19 136.526V146.238L283.605 177.444C283.605 177.444 283.605 200.843 294.469 211.706L307.005 230.927L317.869 225.077L301.991 169.087L273.576 132.318L255.19 136.526V136.526V136.526Z" fill="#2F2E41"/>
<path d="M275.382 40.2396L270.029 60.6457L249.622 56.6314C249.622 56.6314 263.861 41.9509 261.854 35.2604L275.382 40.2396H275.382V40.2396Z" fill="#A0616A"/>
<path d="M259.787 43.3198L272.323 49.1694C272.323 49.1694 278.772 53.1109 278.89 55.7363C279.008 58.3618 278.173 70.8967 278.173 70.8967C278.173 70.8967 283.187 75.9107 279.844 85.9387L281.516 102.652L243.908 122.708L247.251 87.6101L245.58 55.0191L259.787 43.3198L259.787 43.3198V43.3198Z" fill="#3F3D56"/>
<path d="M248.534 138.42C250.002 141.787 252.93 143.76 255.073 142.825C257.216 141.891 257.762 138.404 256.294 135.036C255.725 133.682 254.841 132.484 253.715 131.542L247.316 117.353L240.721 120.498L247.73 134.152C247.653 135.619 247.929 137.082 248.534 138.42V138.42V138.42Z" fill="#A0616A"/>
<path d="M255.19 57.1083C255.19 57.1083 245.998 51.2586 242.655 57.9439C239.312 64.6292 231.79 98.8915 231.79 98.8915L242.655 131.483L252.683 127.304L243.908 92.2292L255.191 57.1083H255.19V57.1083Z" fill="#3F3D56"/>
<path d="M302.306 133.159C304.911 135.749 308.359 136.504 310.007 134.846C311.655 133.188 310.879 129.745 308.273 127.155C307.246 126.106 305.982 125.318 304.589 124.857L293.412 114.023L288.439 119.376L299.985 129.488C300.455 130.88 301.25 132.139 302.306 133.159L302.306 133.159V133.159Z" fill="#A0616A"/>
<path d="M278.536 55.1148C278.536 55.1148 262.509 54.4593 261.865 61.9059C261.22 69.3525 272.176 102.579 272.176 102.579L294.284 128.876L302.068 121.297L280.987 91.9217L278.536 55.1147V55.1148Z" fill="#3F3D56"/>
<path d="M231.609 115.443L218.222 74.8082C207.399 65.2719 195.658 88.2325 164.14 75.2172L174.053 121.181C197.883 108.299 218.395 103.254 231.609 115.443V115.443Z" fill="white"/>
<path d="M174.053 122.379C173.968 122.379 173.882 122.361 173.803 122.324C173.631 122.245 173.507 122.09 173.467 121.906L163.553 75.9422C163.507 75.7242 163.584 75.4981 163.756 75.3551C163.927 75.2122 164.163 75.1761 164.369 75.2611C182.274 82.6551 193.831 78.253 202.268 75.0384C208.683 72.5944 213.748 70.6659 218.618 74.9564C218.699 75.027 218.758 75.1175 218.792 75.2189L232.179 115.853C232.265 116.113 232.164 116.398 231.934 116.546C231.704 116.693 231.402 116.667 231.202 116.482C219.585 105.766 201.516 107.616 174.339 122.307C174.25 122.355 174.152 122.379 174.053 122.379V122.379ZM164.965 76.795L174.472 120.873C200.548 106.909 218.408 104.757 230.369 114.193L217.704 75.7512C213.413 72.077 208.909 73.7931 202.696 76.1598C194.235 79.3826 182.711 83.7733 164.965 76.795V76.795V76.795Z" fill="#3F3D56"/>
<path d="M184.9 55.4495L176.43 57.2024C176.43 57.2024 153.788 69.6617 158.068 74.3839C162.347 79.106 180.532 79.7094 180.532 79.7094L184.288 73.8977L179.741 71.7681L191.27 62.2568L184.9 55.4495V55.4495H184.9V55.4495Z" fill="#A0616A"/>
<path d="M208.157 52.8402C208.157 52.8402 199.883 40.1529 191.798 45.8027C183.713 51.4526 176.43 57.2024 176.43 57.2024L186.495 69.9173L208.157 52.8402L208.157 52.8402V52.8402V52.8402Z" fill="#E6E6E6"/>
<path d="M194.912 79.5798C195.373 77.3015 192.053 74.707 187.496 73.7848C182.939 72.8626 178.871 73.962 178.41 76.2403C177.949 78.5186 181.269 81.1131 185.826 82.0353C190.383 82.9574 194.451 81.8581 194.912 79.5798Z" fill="#A0616A"/>
<path d="M284.093 29.3298C284.093 37.0189 277.859 43.2521 270.17 43.2521C262.48 43.2521 256.247 37.0189 256.247 29.3298C256.247 21.6408 262.48 15.4075 270.17 15.4075C277.859 15.4075 284.093 21.6408 284.093 29.3298Z" fill="#A0616A"/>
<path d="M269.059 10.6123C269.461 10.8474 270.001 10.4917 270.13 10.0434C270.259 9.5952 270.109 9.1193 269.96 8.67734C269.709 7.93571 269.459 7.19409 269.209 6.45245C268.676 4.87451 268.11 3.24143 266.956 2.04041C265.215 0.227673 262.447 -0.23348 259.955 0.100607C256.756 0.529644 253.599 2.26213 252.111 5.12702C250.623 7.99191 251.257 11.9895 253.945 13.7769C250.113 18.168 248.778 23.0618 248.989 28.8855C249.2 34.7092 255.546 40.0689 259.685 44.1714C260.61 43.6112 261.45 40.9855 260.942 40.0317C260.433 39.0778 261.162 37.9728 260.532 37.0942C259.903 36.2156 259.376 37.6146 260.012 36.741C260.414 36.1897 258.847 34.9215 259.444 34.5916C262.331 32.9957 263.291 29.3972 265.104 26.6415C267.292 23.3176 271.035 21.0666 274.997 20.6932C277.179 20.4875 279.484 20.8601 281.273 22.1269C283.062 23.3938 284.22 25.6576 283.805 27.8099C284.879 26.7192 285.414 25.1208 285.212 23.6033C285.01 22.0858 284.077 20.6826 282.755 19.9103C283.559 17.2526 282.87 14.1954 281.005 12.1387C279.139 10.082 271.571 10.4323 268.848 10.9736L269.059 10.6123H269.059H269.059Z" fill="#2F2E41"/>
<path d="M268.636 20.7739C265.028 21.1633 262.424 24.2877 260.225 27.1731C258.957 28.8362 257.629 30.6728 257.661 32.7637C257.693 34.8775 259.107 36.6907 259.782 38.694C260.886 41.9684 259.81 45.8643 257.182 48.108C259.779 48.6008 262.586 46.6536 263.035 44.0486C263.557 41.0162 261.258 38.0893 261.53 35.0243C261.77 32.324 263.898 30.2458 265.707 28.2268C267.516 26.2078 269.215 23.5286 268.383 20.9486L268.636 20.7739V20.7739Z" fill="#2F2E41"/>
</g>
<defs>
<clipPath id="clip0_109_41">
<rect width="439" height="261" fill="white"/>
</clipPath>
</defs>
</svg>
